<svg xmlns="http://www.w3.org/2000/svg" viewBox="0 0 64 64" fill="none">
  <defs>
    <linearGradient id="raqwanBg" x1="0%" y1="0%" x2="100%" y2="100%">
      <stop offset="0%" stop-color="#0E1916"/>
      <stop offset="100%" stop-color="#060C0A"/>
    </linearGradient>

    <linearGradient id="raqwanEmerald" x1="0%" y1="0%" x2="100%" y2="100%">
      <stop offset="0%" stop-color="#06B6D4"/>
      <stop offset="50%" stop-color="#10B981"/>
      <stop offset="100%" stop-color="#047857"/>
    </linearGradient>

    <linearGradient id="cyanSpark" x1="0%" y1="0%" x2="100%" y2="100%">
      <stop offset="0%" stop-color="#FFFFFF"/>
      <stop offset="100%" stop-color="#A5F3FC"/>
    </linearGradient>

    <filter id="raqwanGlow" x="-20%" y="-20%" width="140%" height="140%">
      <feGaussianBlur stdDeviation="1.5" result="blur" />
      <feComposite in="SourceGraphic" in2="blur" operator="over" />
    </filter>
  </defs>

  <!-- Container -->
  <rect width="64" height="64" rx="16" fill="url(#raqwanBg)"/>
  <rect x="0.75" y="0.75" width="62.5" height="62.5" rx="15.25" stroke="rgba(16, 185, 129, 0.25)" stroke-width="1.5"/>

  <!-- Stylized Geometric 'R' & Neural Node -->
  <path d="M18 46V18H34C40 18 44 21.5 44 27C44 31.2 41.5 34.2 37.5 35.5L45.5 46H38L31 36.5H25V46H18ZM25 31H33.5C36.2 31 38 29.5 38 27C38 24.5 36.2 23 33.5 23H25V31Z" fill="url(#raqwanEmerald)"/>

  <!-- Neural AI Node Spark -->
  <polygon points="46,16 48.5,22 54.5,24.5 48.5,27 46,33 43.5,27 37.5,24.5 43.5,22" fill="url(#cyanSpark)" filter="url(#raqwanGlow)"/>
</svg>
